<svg xmlns="http://www.w3.org/2000/svg" viewBox="0 0 512 512" fill="none">
  <defs>
    <linearGradient id="openstaff-bg" x1="48" y1="48" x2="464" y2="464" gradientUnits="userSpaceOnUse">
      <stop offset="0%" stop-color="#3B82F6"/>
      <stop offset="52%" stop-color="#22C55E"/>
      <stop offset="100%" stop-color="#F97316"/>
    </linearGradient>
    <linearGradient id="openstaff-loop" x1="112" y1="256" x2="400" y2="256" gradientUnits="userSpaceOnUse">
      <stop offset="0%" stop-color="#F8FAFC"/>
      <stop offset="100%" stop-color="#E2E8F0"/>
    </linearGradient>
  </defs>

  <rect x="32" y="32" width="448" height="448" rx="144" fill="url(#openstaff-bg)"/>
  <rect x="36" y="36" width="440" height="440" rx="140" fill="none" stroke="#0F172A" stroke-opacity="0.12" stroke-width="8"/>

  <path
    d="M 112 256 C 112 211.2, 147.2 176, 190.4 176 C 254.4 176, 280 336, 339.2 336 C 381.6 336, 416 300.8, 416 256 C 416 211.2, 381.6 176, 339.2 176 C 280 176, 254.4 336, 190.4 336 C 147.2 336, 112 300.8, 112 256 Z"
    fill="none"
    stroke="url(#openstaff-loop)"
    stroke-linecap="round"
    stroke-width="50"
  />

  <circle cx="160" cy="256" r="25" fill="#FFFFFF"/>
  <circle cx="256" cy="176" r="25" fill="#FFFFFF"/>
  <circle cx="352" cy="256" r="25" fill="#FFFFFF"/>
</svg>
